<svg width="567" height="100" viewBox="0 0 567 100" fill="none" xmlns="http://www.w3.org/2000/svg">
<path d="M510.952 69.676C513.482 78.6335 520.343 83.1122 531.535 83.1122C531.902 83.1122 532.265 83.106 532.623 83.0936C542.632 82.7475 554.347 79.6158 563.067 84.5416V84.5416C555.865 94.7379 545.257 99.8361 531.243 99.8361C519.175 99.8361 509.492 96.2626 502.193 89.1157C494.894 81.9687 491.245 72.9636 491.245 62.1002C491.245 51.3322 494.845 42.3747 502.047 35.2277C509.249 27.9855 518.494 24.3644 529.783 24.3644C540.489 24.3644 549.296 27.9855 556.206 35.2277C563.213 42.47 566.716 51.4275 566.716 62.1002C566.716 64.4825 566.473 67.0078 565.986 69.676H510.952ZM510.66 55.3821H547.885C546.814 50.5222 544.576 46.9011 541.17 44.5187C537.861 42.1364 534.065 40.9453 529.783 40.9453C524.723 40.9453 520.538 42.2317 517.229 44.8046C513.92 47.2822 511.731 50.808 510.66 55.3821Z" fill="white"/>
<path d="M454.317 26.4152C462.627 26.4152 469.246 29.0875 474.174 34.4322C479.199 39.7769 481.711 46.9349 481.711 55.9064V100H463.014V57.1948C463.014 52.9 461.951 49.5596 459.825 47.1735C457.699 44.7875 454.704 43.5945 450.839 43.5945C446.587 43.5945 443.253 44.9784 440.838 47.7462C438.518 50.514 437.359 54.5225 437.359 59.7717V100H418.661V57.1948C418.661 52.9 417.598 49.5596 415.473 47.1735C413.347 44.7875 410.351 43.5945 406.486 43.5945C402.331 43.5945 398.998 44.9784 396.485 47.7462C394.069 50.514 392.862 54.5225 392.862 59.7717V100H374.164V28.4194H385.274C389.465 28.4194 392.862 31.8165 392.862 36.007V36.007C397.21 29.6124 403.926 26.4152 413.009 26.4152C421.898 26.4152 428.469 29.851 432.721 36.7228C437.552 29.851 444.751 26.4152 454.317 26.4152Z" fill="white"/>
<path d="M340.313 100V0H359.181V100H340.313Z" fill="white"/>
<path d="M319.455 88.9727C311.949 96.2149 302.784 99.8361 291.963 99.8361C281.142 99.8361 271.978 96.2149 264.471 88.9727C257.062 81.6352 253.357 72.6777 253.357 62.1002C253.357 51.5227 257.062 42.6129 264.471 35.3707C271.978 28.0331 281.142 24.3644 291.963 24.3644C302.784 24.3644 311.949 28.0331 319.455 35.3707C326.962 42.6129 330.715 51.5227 330.715 62.1002C330.715 72.6777 326.962 81.6352 319.455 88.9727ZM277.778 76.2512C281.58 79.9676 286.309 81.8258 291.963 81.8258C297.617 81.8258 302.346 79.9676 306.148 76.2512C309.95 72.5347 311.851 67.8178 311.851 62.1002C311.851 56.3827 309.95 51.6657 306.148 47.9493C302.346 44.2329 297.617 42.3747 291.963 42.3747C286.309 42.3747 281.58 44.2329 277.778 47.9493C274.074 51.6657 272.221 56.3827 272.221 62.1002C272.221 67.8178 274.074 72.5347 277.778 76.2512Z" fill="white"/>
<path d="M254.358 100H231.872L196.516 53.1428V100H177V0H196.516V44.1428L213.487 22.0714L219.35 14.4467C226.354 5.33802 237.192 0 248.682 0H252.944L216.316 48.5714L254.358 100Z" fill="white"/>
<path d="M40 27C40 13.1929 51.1929 2 65 2V2V63H40V27Z" fill="#EC7124"/>
<path d="M4 63V63C4 49.1929 15.1929 38 29 38L65 38L65 63L4 63Z" fill="#EC7124"/>
<rect x="95" y="100" width="25" height="61" transform="rotate(180 95 100)" fill="white"/>
<rect x="131" y="38" width="25" height="61" transform="rotate(90 131 38)" fill="white"/>
<path d="M94.0079 4.29185C96.0762 2.18617 98.9039 1 101.855 1H131L36.9921 96.7081C34.9238 98.8138 32.0961 100 29.1446 100H0L94.0079 4.29185Z" fill="white"/>
</svg>
